<svg xmlns="http://www.w3.org/2000/svg" xmlns:xlink="http://www.w3.org/1999/xlink" width="40" zoomAndPan="magnify" viewBox="0 0 30 30.000001" height="40" preserveAspectRatio="xMidYMid meet" version="1.0"><defs><clipPath id="0d2b5085e1"><path d="M 15 4.035156 L 18 4.035156 L 18 7 L 15 7 Z M 15 4.035156 " clip-rule="nonzero"/></clipPath><clipPath id="2053639c63"><path d="M 4.9375 8.3125 L 25.046875 8.3125 L 25.046875 16.257812 L 4.9375 16.257812 Z M 4.9375 8.3125 " clip-rule="nonzero"/></clipPath><clipPath id="e3e099a7bc"><path d="M 5 16.257812 L 25.046875 16.257812 L 25.046875 24.960938 L 5 24.960938 Z M 5 16.257812 " clip-rule="nonzero"/></clipPath></defs><path fill="#f5de7e" d="M 12.804688 6.597656 C 12.804688 7.203125 12.316406 7.695312 11.707031 7.695312 C 11.101562 7.695312 10.609375 7.203125 10.609375 6.597656 C 10.609375 5.988281 11.101562 5.5 11.707031 5.5 C 12.316406 5.5 12.804688 5.988281 12.804688 6.597656 " fill-opacity="1" fill-rule="evenodd"/><g clip-path="url(#0d2b5085e1)"><path fill="#d2a94f" d="M 17.8125 5.140625 C 17.8125 5.738281 17.328125 6.222656 16.730469 6.222656 C 16.132812 6.222656 15.648438 5.738281 15.648438 5.140625 C 15.648438 4.542969 16.132812 4.058594 16.730469 4.058594 C 17.328125 4.058594 17.8125 4.542969 17.8125 5.140625 " fill-opacity="1" fill-rule="evenodd"/></g><path fill="#d2a94f" d="M 14.859375 5.339844 L 15.300781 6.699219 L 16.730469 6.699219 L 15.574219 7.535156 L 16.015625 8.894531 L 14.859375 8.054688 L 13.703125 8.894531 L 14.144531 7.535156 L 12.992188 6.699219 L 14.417969 6.699219 L 14.859375 5.339844 " fill-opacity="1" fill-rule="evenodd"/><path fill="#402a75" d="M 11.066406 9.382812 C 11.066406 10.183594 10.417969 10.832031 9.617188 10.832031 C 8.816406 10.832031 8.167969 10.183594 8.167969 9.382812 C 8.167969 8.585938 8.816406 7.9375 9.617188 7.9375 C 10.417969 7.9375 11.066406 8.585938 11.066406 9.382812 " fill-opacity="1" fill-rule="evenodd"/><path fill="#705ea8" d="M 21.375 6.789062 C 21.375 7.585938 20.726562 8.234375 19.929688 8.234375 C 19.128906 8.234375 18.480469 7.585938 18.480469 6.789062 C 18.480469 5.988281 19.128906 5.339844 19.929688 5.339844 C 20.726562 5.339844 21.375 5.988281 21.375 6.789062 " fill-opacity="1" fill-rule="evenodd"/><path fill="#402a75" d="M 16.234375 12.679688 C 16.234375 12.679688 12.015625 12.40625 11.066406 12.03125 C 10.117188 11.65625 7.746094 11.105469 7.222656 13.203125 C 6.695312 15.300781 11.664062 16.324219 13.214844 18.296875 C 14.761719 20.269531 14.785156 20.792969 14.234375 23.164062 C 14.234375 23.164062 15.609375 21.71875 14.859375 19.144531 C 14.113281 16.574219 11.976562 15.078125 11.707031 14.875 C 11.4375 14.675781 10.742188 14.101562 11.066406 13.726562 C 11.390625 13.355469 11.539062 13.378906 12.789062 13.503906 C 14.035156 13.628906 15.246094 13.328125 16.234375 12.679688 " fill-opacity="1" fill-rule="evenodd"/><path fill="#705ea8" d="M 11.339844 10.40625 C 11.339844 10.40625 12.613281 11.832031 14.984375 11.78125 C 17.355469 11.730469 19.554688 11.632812 19.804688 12.828125 C 20.054688 14.027344 18.578125 18.546875 15.757812 23.164062 C 15.757812 23.164062 19.085938 19.453125 21.582031 14.460938 C 21.582031 14.460938 23.546875 11.199219 22.050781 9.382812 C 22.050781 9.382812 21.648438 8.503906 18.953125 9.667969 C 16.257812 10.832031 15.078125 11.3125 11.339844 10.40625 " fill-opacity="1" fill-rule="evenodd"/><g clip-path="url(#2053639c63)"><path fill="#d2a94f" d="M 7.570312 11 C 7.570312 11 2.511719 14.195312 9.101562 15.09375 C 11.589844 15.433594 14.222656 15.238281 16.65625 14.617188 C 17.703125 14.347656 18.765625 14.0625 19.777344 13.683594 C 20.953125 13.242188 22.207031 12.757812 23.148438 11.894531 C 23.917969 11.183594 24.519531 9.972656 23.417969 9.210938 C 22.921875 8.867188 22.292969 8.714844 21.714844 8.570312 C 22.753906 8.828125 25.085938 9.082031 25.046875 10.578125 C 25.035156 11.121094 24.496094 11.835938 24.117188 12.1875 C 23.691406 12.585938 23.171875 12.890625 22.675781 13.195312 C 21.449219 13.949219 20.101562 14.484375 18.726562 14.902344 C 17.914062 15.148438 17.074219 15.335938 16.234375 15.457031 C 11.929688 16.089844 9.167969 16.390625 6.171875 15.324219 C 3.175781 14.261719 6.433594 11.488281 7.570312 11 " fill-opacity="1" fill-rule="evenodd"/></g><path fill="#705ea8" d="M 20.71875 16.921875 L 18.621094 20.316406 C 18.621094 20.316406 18.820312 22.148438 21.152344 23.613281 C 21.152344 23.613281 18.6875 21.382812 20.71875 16.921875 " fill-opacity="1" fill-rule="evenodd"/><g clip-path="url(#e3e099a7bc)"><path fill="#402a75" d="M 15.582031 23.390625 C 14.695312 23.390625 13.5625 23.496094 12.371094 23.65625 C 13.234375 23.046875 13.800781 22.046875 13.800781 20.910156 C 13.800781 19.886719 13.34375 18.972656 12.625 18.355469 C 10.683594 16.582031 7.921875 16.472656 7.921875 16.472656 C 9.824219 16.738281 11.585938 18.105469 11.699219 18.199219 C 12.699219 19 12.804688 19.585938 12.804688 19.585938 C 13.027344 19.980469 13.152344 20.429688 13.152344 20.910156 C 13.152344 22.402344 11.9375 23.617188 10.441406 23.617188 C 8.945312 23.617188 7.734375 22.402344 7.734375 20.910156 C 7.734375 19.414062 8.945312 18.199219 10.441406 18.199219 C 10.558594 18.199219 10.671875 18.207031 10.78125 18.222656 C 10.78125 18.222656 9.167969 17.679688 8.171875 18.4375 C 7.503906 19.050781 7.085938 19.929688 7.085938 20.910156 C 7.085938 22.417969 8.078125 23.691406 9.449219 24.117188 C 7.125 24.527344 5.199219 24.960938 5.199219 24.960938 C 18.230469 23.238281 25.046875 24.960938 25.046875 24.960938 C 23.230469 23.9375 18.980469 23.390625 15.582031 23.390625 " fill-opacity="1" fill-rule="evenodd"/></g></svg>