<svg xmlns="http://www.w3.org/2000/svg" xmlns:xlink="http://www.w3.org/1999/xlink" width="500" zoomAndPan="magnify" viewBox="0 0 375 374.999991" height="500" preserveAspectRatio="xMidYMid meet" version="1.0"><defs><g/><clipPath id="f5c9e95000"><path d="M 182 45.761719 L 204 45.761719 L 204 68 L 182 68 Z M 182 45.761719 " clip-rule="nonzero"/></clipPath><clipPath id="e07021e8f6"><path d="M 77.578125 90 L 274.511719 90 L 274.511719 164 L 77.578125 164 Z M 77.578125 90 " clip-rule="nonzero"/></clipPath><clipPath id="0b1131b810"><path d="M 80 167 L 274.511719 167 L 274.511719 250.695312 L 80 250.695312 Z M 80 167 " clip-rule="nonzero"/></clipPath></defs><path fill="#f5de7e" d="M 154.625 70.847656 C 154.625 76.785156 149.816406 81.601562 143.867188 81.601562 C 137.929688 81.601562 133.109375 76.785156 133.109375 70.847656 C 133.109375 64.898438 137.929688 60.089844 143.867188 60.089844 C 149.816406 60.089844 154.625 64.898438 154.625 70.847656 " fill-opacity="1" fill-rule="evenodd"/><g clip-path="url(#f5c9e95000)"><path fill="#d2a94f" d="M 203.632812 56.582031 C 203.632812 62.433594 198.890625 67.175781 193.039062 67.175781 C 187.1875 67.175781 182.445312 62.433594 182.445312 56.582031 C 182.445312 50.730469 187.1875 45.988281 193.039062 45.988281 C 198.890625 45.988281 203.632812 50.730469 203.632812 56.582031 " fill-opacity="1" fill-rule="evenodd"/></g><path fill="#d2a94f" d="M 174.738281 58.535156 L 179.058594 71.832031 L 193.039062 71.832031 L 181.726562 80.050781 L 186.046875 93.347656 L 174.738281 85.128906 L 163.425781 93.347656 L 167.746094 80.050781 L 156.4375 71.832031 L 170.417969 71.832031 L 174.738281 58.535156 " fill-opacity="1" fill-rule="evenodd"/><path fill="#402a75" d="M 137.582031 98.144531 C 137.582031 105.972656 131.230469 112.320312 123.394531 112.320312 C 115.570312 112.320312 109.21875 105.972656 109.21875 98.144531 C 109.21875 90.308594 115.570312 83.957031 123.394531 83.957031 C 131.230469 83.957031 137.582031 90.308594 137.582031 98.144531 " fill-opacity="1" fill-rule="evenodd"/><path fill="#705ea8" d="M 238.539062 72.714844 C 238.539062 80.550781 232.203125 86.898438 224.363281 86.898438 C 216.539062 86.898438 210.1875 80.550781 210.1875 72.714844 C 210.1875 64.886719 216.539062 58.535156 224.363281 58.535156 C 232.203125 58.535156 238.539062 64.886719 238.539062 72.714844 " fill-opacity="1" fill-rule="evenodd"/><path fill="#402a75" d="M 188.1875 130.417969 C 188.1875 130.417969 146.875 127.722656 137.582031 124.054688 C 128.289062 120.386719 105.0625 115.011719 99.925781 135.539062 C 94.792969 156.078125 143.441406 166.105469 158.605469 185.417969 C 173.761719 204.726562 174.011719 209.859375 168.625 233.089844 C 168.625 233.089844 182.074219 218.914062 174.738281 193.730469 C 167.410156 168.546875 146.492188 153.882812 143.867188 151.917969 C 141.238281 149.964844 134.402344 144.34375 137.582031 140.671875 C 140.75 137.015625 142.226562 137.253906 154.449219 138.480469 C 166.671875 139.695312 178.527344 136.765625 188.1875 130.417969 " fill-opacity="1" fill-rule="evenodd"/><path fill="#705ea8" d="M 140.273438 108.164062 C 140.273438 108.164062 152.734375 122.101562 175.964844 121.613281 C 199.183594 121.125 220.695312 120.148438 223.148438 131.882812 C 225.589844 143.617188 211.164062 187.859375 183.539062 233.089844 C 183.539062 233.089844 216.136719 196.75 240.582031 147.847656 C 240.582031 147.847656 259.816406 115.902344 245.152344 98.144531 C 245.152344 98.144531 241.234375 89.503906 214.835938 100.914062 C 188.425781 112.320312 176.855469 117.042969 140.273438 108.164062 " fill-opacity="1" fill-rule="evenodd"/><g clip-path="url(#e07021e8f6)"><path fill="#d2a94f" d="M 103.355469 113.949219 C 103.355469 113.949219 53.804688 145.242188 118.347656 154.046875 C 142.726562 157.367188 168.496094 155.457031 192.3125 149.378906 C 202.570312 146.761719 213 143.972656 222.910156 140.238281 C 234.414062 135.910156 246.703125 131.1875 255.886719 122.730469 C 263.453125 115.75 269.3125 103.886719 258.535156 96.429688 C 253.695312 93.066406 247.527344 91.566406 241.882812 90.15625 C 252.042969 92.695312 274.882812 95.183594 274.5 109.8125 C 274.371094 115.15625 269.117188 122.144531 265.40625 125.597656 C 261.226562 129.484375 256.125 132.488281 251.285156 135.453125 C 239.277344 142.832031 226.058594 148.097656 212.597656 152.179688 C 204.628906 154.601562 196.433594 156.414062 188.1875 157.628906 C 146.058594 163.828125 119 166.757812 89.660156 156.324219 C 60.328125 145.894531 92.21875 118.738281 103.355469 113.949219 " fill-opacity="1" fill-rule="evenodd"/></g><path fill="#705ea8" d="M 232.105469 171.96875 L 211.578125 205.214844 C 211.578125 205.214844 213.53125 223.148438 236.347656 237.484375 C 236.347656 237.484375 212.230469 215.648438 232.105469 171.96875 " fill-opacity="1" fill-rule="evenodd"/><g clip-path="url(#0b1131b810)"><path fill="#402a75" d="M 181.824219 235.292969 C 173.128906 235.292969 162.027344 236.347656 150.367188 237.898438 C 158.824219 231.949219 164.347656 222.125 164.347656 211 C 164.347656 201.003906 159.886719 192.046875 152.84375 186.011719 C 133.835938 168.644531 106.777344 167.570312 106.777344 167.570312 C 125.433594 170.164062 142.660156 183.558594 143.800781 184.460938 C 153.558594 192.296875 154.625 198.0625 154.625 198.0625 C 156.773438 201.894531 158 206.300781 158 211 C 158 225.644531 146.125 237.519531 131.46875 237.519531 C 116.816406 237.519531 104.941406 225.644531 104.941406 211 C 104.941406 196.347656 116.816406 184.472656 131.46875 184.472656 C 132.597656 184.472656 133.707031 184.546875 134.792969 184.6875 C 134.792969 184.6875 119 179.371094 109.230469 186.796875 C 102.683594 192.796875 98.59375 201.417969 98.59375 211 C 98.59375 225.761719 108.328125 238.257812 121.734375 242.414062 C 98.992188 246.441406 80.128906 250.695312 80.128906 250.695312 C 207.746094 233.816406 274.511719 250.695312 274.511719 250.695312 C 256.691406 240.667969 215.074219 235.292969 181.824219 235.292969 " fill-opacity="1" fill-rule="evenodd"/></g><g fill="#402a75" fill-opacity="1"><g transform="translate(48.284999, 312.586357)"><g><path d="M 18.875 -52.390625 L 18.875 -1.546875 C 18.875 -0.515625 18.359375 0 17.328125 0 L 6.15625 0 C 5.132812 0 4.625 -0.515625 4.625 -1.546875 L 4.625 -52.390625 C 4.625 -53.421875 5.132812 -53.9375 6.15625 -53.9375 L 17.328125 -53.9375 C 18.359375 -53.9375 18.875 -53.421875 18.875 -52.390625 Z M 18.875 -52.390625 "/></g></g></g><g fill="#402a75" fill-opacity="1"><g transform="translate(71.781927, 312.586357)"><g><path d="M 6.15625 -53.9375 L 18.953125 -53.9375 C 19.460938 -53.9375 19.898438 -53.675781 20.265625 -53.15625 L 37.515625 -24.421875 C 38.390625 -22.984375 39.082031 -22.34375 39.59375 -22.5 C 40.113281 -22.65625 40.375 -23.550781 40.375 -25.1875 L 40.375 -52.390625 C 40.375 -53.421875 40.882812 -53.9375 41.90625 -53.9375 L 46.375 -53.9375 C 47.40625 -53.9375 47.921875 -53.421875 47.921875 -52.390625 L 47.921875 -1.546875 C 47.921875 -0.515625 47.40625 0 46.375 0 L 35.671875 0 C 35.160156 0 34.722656 -0.253906 34.359375 -0.765625 L 15.03125 -32.90625 C 14.207031 -34.34375 13.523438 -34.984375 12.984375 -34.828125 C 12.441406 -34.671875 12.171875 -33.769531 12.171875 -32.125 L 12.171875 -1.546875 C 12.171875 -0.515625 11.65625 0 10.625 0 L 6.15625 0 C 5.132812 0 4.625 -0.515625 4.625 -1.546875 L 4.625 -52.390625 C 4.625 -53.421875 5.132812 -53.9375 6.15625 -53.9375 Z M 6.15625 -53.9375 "/></g></g></g><g fill="#402a75" fill-opacity="1"><g transform="translate(124.322607, 312.586357)"><g><path d="M 5.390625 -1.546875 L 5.390625 -52.390625 C 5.390625 -53.421875 5.90625 -53.9375 6.9375 -53.9375 L 25.65625 -53.9375 C 29.507812 -53.9375 33.050781 -53.265625 36.28125 -51.921875 C 39.519531 -50.585938 42.320312 -48.726562 44.6875 -46.34375 C 47.050781 -43.957031 48.882812 -41.128906 50.1875 -37.859375 C 51.5 -34.597656 52.15625 -31.046875 52.15625 -27.203125 C 52.15625 -23.296875 51.488281 -19.6875 50.15625 -16.375 C 48.820312 -13.0625 46.957031 -10.179688 44.5625 -7.734375 C 42.175781 -5.296875 39.378906 -3.394531 36.171875 -2.03125 C 32.960938 -0.675781 29.457031 0 25.65625 0 L 6.9375 0 C 5.90625 0 5.390625 -0.515625 5.390625 -1.546875 Z M 19.640625 -45.453125 L 19.640625 -8.46875 C 19.640625 -7.445312 20.15625 -6.9375 21.1875 -6.9375 L 25.578125 -6.9375 C 27.628906 -6.9375 29.476562 -7.820312 31.125 -9.59375 C 32.769531 -11.363281 34.066406 -13.765625 35.015625 -16.796875 C 35.960938 -19.828125 36.4375 -23.21875 36.4375 -26.96875 C 36.4375 -30.769531 35.960938 -34.171875 35.015625 -37.171875 C 34.066406 -40.179688 32.769531 -42.570312 31.125 -44.34375 C 29.476562 -46.113281 27.628906 -47 25.578125 -47 L 21.1875 -47 C 20.15625 -47 19.640625 -46.484375 19.640625 -45.453125 Z M 19.640625 -45.453125 "/></g></g></g><g fill="#402a75" fill-opacity="1"><g transform="translate(180.330046, 312.586357)"><g><path d="M 18.875 -52.390625 L 18.875 -1.546875 C 18.875 -0.515625 18.359375 0 17.328125 0 L 6.15625 0 C 5.132812 0 4.625 -0.515625 4.625 -1.546875 L 4.625 -52.390625 C 4.625 -53.421875 5.132812 -53.9375 6.15625 -53.9375 L 17.328125 -53.9375 C 18.359375 -53.9375 18.875 -53.421875 18.875 -52.390625 Z M 18.875 -52.390625 "/></g></g></g><g fill="#402a75" fill-opacity="1"><g transform="translate(203.826974, 312.586357)"><g><path d="M 39.90625 -9.40625 L 39.90625 -21.734375 C 39.90625 -22.753906 39.394531 -23.265625 38.375 -23.265625 L 33.28125 -23.265625 C 32.257812 -23.265625 31.75 -23.78125 31.75 -24.8125 L 31.75 -28.8125 C 31.75 -29.84375 32.257812 -30.359375 33.28125 -30.359375 L 52.625 -30.359375 C 53.644531 -30.359375 54.15625 -29.84375 54.15625 -28.8125 L 54.15625 -1.546875 C 54.15625 -0.515625 53.644531 0 52.625 0 L 46.453125 0 C 45.941406 0 45.507812 -0.226562 45.15625 -0.6875 L 44.765625 -1.234375 C 44.203125 -2.003906 43.484375 -2.15625 42.609375 -1.6875 C 39.316406 0.3125 35.820312 1.3125 32.125 1.3125 C 28.21875 1.3125 24.546875 0.582031 21.109375 -0.875 C 17.671875 -2.34375 14.664062 -4.375 12.09375 -6.96875 C 9.53125 -9.5625 7.515625 -12.578125 6.046875 -16.015625 C 4.585938 -19.460938 3.859375 -23.140625 3.859375 -27.046875 C 3.859375 -30.992188 4.585938 -34.660156 6.046875 -38.046875 C 7.515625 -41.441406 9.554688 -44.4375 12.171875 -47.03125 C 14.796875 -49.625 17.828125 -51.640625 21.265625 -53.078125 C 24.703125 -54.523438 28.425781 -55.25 32.4375 -55.25 C 35.925781 -55.25 39.328125 -54.679688 42.640625 -53.546875 C 45.953125 -52.421875 48.640625 -50.90625 50.703125 -49 C 51.316406 -48.382812 51.34375 -47.691406 50.78125 -46.921875 L 47.53125 -43.375 C 46.757812 -42.601562 45.96875 -42.601562 45.15625 -43.375 C 42.070312 -46.195312 38.601562 -47.609375 34.75 -47.609375 C 31.664062 -47.609375 28.992188 -46.757812 26.734375 -45.0625 C 24.472656 -43.375 22.710938 -41 21.453125 -37.9375 C 20.191406 -34.882812 19.5625 -31.28125 19.5625 -27.125 C 19.5625 -22.957031 20.191406 -19.320312 21.453125 -16.21875 C 22.710938 -13.113281 24.472656 -10.6875 26.734375 -8.9375 C 28.992188 -7.1875 31.585938 -6.3125 34.515625 -6.3125 C 36.160156 -6.3125 37.804688 -6.984375 39.453125 -8.328125 C 39.753906 -8.628906 39.90625 -8.988281 39.90625 -9.40625 Z M 39.90625 -9.40625 "/></g></g></g><g fill="#402a75" fill-opacity="1"><g transform="translate(263.378201, 312.586357)"><g><path d="M 31.671875 -55.25 C 35.515625 -55.25 39.101562 -54.515625 42.4375 -53.046875 C 45.78125 -51.578125 48.738281 -49.546875 51.3125 -46.953125 C 53.882812 -44.359375 55.890625 -41.351562 57.328125 -37.9375 C 58.765625 -34.53125 59.484375 -30.875 59.484375 -26.96875 C 59.484375 -23.0625 58.765625 -19.398438 57.328125 -15.984375 C 55.890625 -12.566406 53.882812 -9.5625 51.3125 -6.96875 C 48.738281 -4.375 45.78125 -2.34375 42.4375 -0.875 C 39.101562 0.582031 35.515625 1.3125 31.671875 1.3125 C 27.816406 1.3125 24.21875 0.582031 20.875 -0.875 C 17.539062 -2.34375 14.585938 -4.375 12.015625 -6.96875 C 9.453125 -9.5625 7.453125 -12.566406 6.015625 -15.984375 C 4.578125 -19.398438 3.859375 -23.0625 3.859375 -26.96875 C 3.859375 -30.875 4.578125 -34.53125 6.015625 -37.9375 C 7.453125 -41.351562 9.453125 -44.359375 12.015625 -46.953125 C 14.585938 -49.546875 17.539062 -51.578125 20.875 -53.046875 C 24.21875 -54.515625 27.816406 -55.25 31.671875 -55.25 Z M 31.671875 -6.3125 C 33.929688 -6.3125 35.972656 -7.234375 37.796875 -9.078125 C 39.617188 -10.929688 41.066406 -13.425781 42.140625 -16.5625 C 43.222656 -19.695312 43.765625 -23.164062 43.765625 -26.96875 C 43.765625 -30.769531 43.222656 -34.234375 42.140625 -37.359375 C 41.066406 -40.492188 39.617188 -42.984375 37.796875 -44.828125 C 35.972656 -46.679688 33.929688 -47.609375 31.671875 -47.609375 C 29.460938 -47.609375 27.445312 -46.679688 25.625 -44.828125 C 23.800781 -42.984375 22.332031 -40.492188 21.21875 -37.359375 C 20.113281 -34.234375 19.5625 -30.769531 19.5625 -26.96875 C 19.5625 -23.164062 20.113281 -19.695312 21.21875 -16.5625 C 22.332031 -13.425781 23.800781 -10.929688 25.625 -9.078125 C 27.445312 -7.234375 29.460938 -6.3125 31.671875 -6.3125 Z M 31.671875 -6.3125 "/></g></g></g></svg>